<svg xmlns="http://www.w3.org/2000/svg" xmlns:xlink="http://www.w3.org/1999/xlink" width="500" zoomAndPan="magnify" viewBox="0 0 375 225" height="300" preserveAspectRatio="xMidYMid meet" version="1.2"><defs/><g id="059aeb2ad3"><g style="fill:#f5f5dc;fill-opacity:1;"><g transform="translate(-0.000000000000002481, 101.957002)"><path style="stroke:none" d="M 32.34375 1.09375 C 28.351562 1.09375 24.738281 0.28125 21.5 -1.34375 C 18.257812 -2.976562 15.488281 -5.28125 13.1875 -8.25 C 10.882812 -11.226562 9.109375 -14.769531 7.859375 -18.875 C 6.609375 -22.988281 5.984375 -27.519531 5.984375 -32.46875 C 5.984375 -35.769531 6.269531 -38.878906 6.84375 -41.796875 C 7.425781 -44.710938 8.253906 -47.414062 9.328125 -49.90625 C 10.398438 -52.394531 11.722656 -54.628906 13.296875 -56.609375 C 14.867188 -58.585938 16.644531 -60.273438 18.625 -61.671875 C 20.601562 -63.078125 22.78125 -64.144531 25.15625 -64.875 C 27.53125 -65.601562 30.0625 -65.96875 32.75 -65.96875 C 35.019531 -65.96875 37.253906 -65.660156 39.453125 -65.046875 C 41.660156 -64.429688 43.757812 -63.429688 45.75 -62.046875 C 47.75 -60.671875 49.554688 -58.789062 51.171875 -56.40625 C 51.554688 -55.832031 51.703125 -55.34375 51.609375 -54.9375 C 51.515625 -54.539062 51.175781 -54.109375 50.59375 -53.640625 C 50.0625 -53.179688 49.570312 -52.929688 49.125 -52.890625 C 48.6875 -52.859375 48.253906 -53.109375 47.828125 -53.640625 C 45.796875 -56.066406 43.539062 -57.910156 41.0625 -59.171875 C 38.59375 -60.441406 35.820312 -61.078125 32.75 -61.078125 C 30.675781 -61.078125 28.707031 -60.78125 26.84375 -60.1875 C 24.988281 -59.59375 23.265625 -58.726562 21.671875 -57.59375 C 20.078125 -56.457031 18.644531 -55.0625 17.375 -53.40625 C 16.113281 -51.757812 15.03125 -49.867188 14.125 -47.734375 C 13.226562 -45.609375 12.546875 -43.269531 12.078125 -40.71875 C 11.617188 -38.164062 11.390625 -35.414062 11.390625 -32.46875 C 11.390625 -28.007812 11.898438 -24.003906 12.921875 -20.453125 C 13.941406 -16.910156 15.378906 -13.898438 17.234375 -11.421875 C 19.097656 -8.953125 21.316406 -7.0625 23.890625 -5.75 C 26.460938 -4.445312 29.28125 -3.796875 32.34375 -3.796875 C 33.957031 -3.796875 35.492188 -4.003906 36.953125 -4.421875 C 38.410156 -4.847656 39.8125 -5.445312 41.15625 -6.21875 C 42.5 -6.988281 43.765625 -7.925781 44.953125 -9.03125 C 46.140625 -10.144531 47.273438 -11.394531 48.359375 -12.78125 C 48.816406 -13.351562 49.300781 -13.640625 49.8125 -13.640625 C 50.332031 -13.640625 50.863281 -13.390625 51.40625 -12.890625 C 51.9375 -12.472656 52.226562 -12.03125 52.28125 -11.5625 C 52.34375 -11.101562 52.164062 -10.609375 51.75 -10.078125 C 50.019531 -7.503906 48.109375 -5.390625 46.015625 -3.734375 C 43.929688 -2.085938 41.738281 -0.867188 39.4375 -0.078125 C 37.132812 0.703125 34.769531 1.09375 32.34375 1.09375 Z M 32.34375 1.09375 "/></g></g><g style="fill:#f5f5dc;fill-opacity:1;"><g transform="translate(54.633807, 101.957002)"><path style="stroke:none" d="M 14.84375 0.984375 C 12.65625 0.984375 10.71875 0.457031 9.03125 -0.59375 C 7.34375 -1.65625 6.019531 -3.257812 5.0625 -5.40625 C 4.101562 -7.5625 3.625 -10.269531 3.625 -13.53125 C 3.625 -15.519531 3.804688 -17.359375 4.171875 -19.046875 C 4.535156 -20.742188 5.082031 -22.257812 5.8125 -23.59375 C 6.539062 -24.9375 7.421875 -26.066406 8.453125 -26.984375 C 9.492188 -27.910156 10.6875 -28.625 12.03125 -29.125 C 13.375 -29.625 14.851562 -29.875 16.46875 -29.875 C 17.695312 -29.875 18.960938 -29.671875 20.265625 -29.265625 C 21.566406 -28.867188 22.796875 -28.34375 23.953125 -27.6875 L 23.953125 -27.96875 C 23.953125 -28.550781 24.160156 -28.972656 24.578125 -29.234375 C 25.003906 -29.503906 25.640625 -29.640625 26.484375 -29.640625 C 27.328125 -29.640625 27.945312 -29.515625 28.34375 -29.265625 C 28.75 -29.015625 28.953125 -28.625 28.953125 -28.09375 L 28.953125 -5.53125 C 28.953125 -5.03125 29.03125 -4.613281 29.1875 -4.28125 C 29.34375 -3.957031 29.550781 -3.71875 29.8125 -3.5625 C 30.082031 -3.414062 30.390625 -3.34375 30.734375 -3.34375 C 31.117188 -3.34375 31.4375 -3.390625 31.6875 -3.484375 C 31.9375 -3.578125 32.1875 -3.71875 32.4375 -3.90625 C 32.6875 -4.101562 32.984375 -4.335938 33.328125 -4.609375 C 33.597656 -4.835938 33.90625 -4.898438 34.25 -4.796875 C 34.59375 -4.703125 34.9375 -4.503906 35.28125 -4.203125 C 35.625 -3.816406 35.816406 -3.410156 35.859375 -2.984375 C 35.898438 -2.566406 35.820312 -2.207031 35.625 -1.90625 C 35.207031 -1.289062 34.671875 -0.769531 34.015625 -0.34375 C 33.367188 0.0703125 32.671875 0.394531 31.921875 0.625 C 31.171875 0.863281 30.410156 0.984375 29.640625 0.984375 C 28.765625 0.984375 28 0.882812 27.34375 0.6875 C 26.6875 0.5 26.128906 0.203125 25.671875 -0.203125 C 25.210938 -0.609375 24.859375 -1.097656 24.609375 -1.671875 C 24.359375 -2.242188 24.175781 -2.894531 24.0625 -3.625 C 24.0625 -3.664062 24.039062 -3.753906 24 -3.890625 C 23.96875 -4.023438 23.953125 -4.164062 23.953125 -4.3125 C 23.066406 -2.894531 22.113281 -1.800781 21.09375 -1.03125 C 20.082031 -0.269531 19.035156 0.253906 17.953125 0.546875 C 16.878906 0.835938 15.84375 0.984375 14.84375 0.984375 Z M 8.6875 -13.75 C 8.6875 -11.644531 8.9375 -9.832031 9.4375 -8.3125 C 9.9375 -6.800781 10.691406 -5.640625 11.703125 -4.828125 C 12.722656 -4.023438 14.003906 -3.625 15.546875 -3.625 C 16.660156 -3.625 17.722656 -3.816406 18.734375 -4.203125 C 19.753906 -4.585938 20.703125 -5.21875 21.578125 -6.09375 C 22.460938 -6.976562 23.253906 -8.132812 23.953125 -9.5625 L 23.953125 -23.484375 C 22.753906 -24.210938 21.597656 -24.703125 20.484375 -24.953125 C 19.378906 -25.203125 18.210938 -25.328125 16.984375 -25.328125 C 15.984375 -25.328125 15.0625 -25.171875 14.21875 -24.859375 C 13.375 -24.554688 12.601562 -24.097656 11.90625 -23.484375 C 11.21875 -22.867188 10.632812 -22.097656 10.15625 -21.171875 C 9.675781 -20.253906 9.3125 -19.179688 9.0625 -17.953125 C 8.8125 -16.734375 8.6875 -15.332031 8.6875 -13.75 Z M 8.6875 -13.75 "/></g></g><g style="fill:#f5f5dc;fill-opacity:1;"><g transform="translate(90.442269, 101.957002)"><path style="stroke:none" d="M -3.28125 0.984375 C -4.007812 0.984375 -4.546875 0.757812 -4.890625 0.3125 C -5.234375 -0.125 -5.40625 -0.617188 -5.40625 -1.171875 C -5.40625 -1.734375 -5.234375 -2.234375 -4.890625 -2.671875 C -4.546875 -3.117188 -4.007812 -3.34375 -3.28125 -3.34375 C -2.394531 -3.34375 -1.507812 -3.492188 -0.625 -3.796875 C 0.25 -4.109375 1.109375 -4.550781 1.953125 -5.125 C 2.796875 -5.695312 3.617188 -6.394531 4.421875 -7.21875 C 5.234375 -8.050781 6.019531 -8.972656 6.78125 -9.984375 C 7.550781 -11.003906 8.285156 -12.109375 8.984375 -13.296875 C 9.828125 -14.753906 10.617188 -16.429688 11.359375 -18.328125 C 12.109375 -20.234375 12.789062 -22.304688 13.40625 -24.546875 C 14.019531 -26.796875 14.585938 -29.175781 15.109375 -31.6875 C 15.628906 -34.195312 16.0625 -36.785156 16.40625 -39.453125 C 16.75 -42.117188 17.015625 -44.84375 17.203125 -47.625 C 17.398438 -50.414062 17.5 -53.191406 17.5 -55.953125 C 17.5 -56.753906 17.75 -57.347656 18.25 -57.734375 C 18.75 -58.117188 19.332031 -58.3125 20 -58.3125 C 20.675781 -58.3125 21.257812 -58.097656 21.75 -57.671875 C 22.25 -57.253906 22.5 -56.679688 22.5 -55.953125 C 22.5 -53.265625 22.382812 -50.519531 22.15625 -47.71875 C 21.925781 -44.914062 21.59375 -42.140625 21.15625 -39.390625 C 20.71875 -36.648438 20.191406 -33.957031 19.578125 -31.3125 C 18.960938 -28.664062 18.28125 -26.140625 17.53125 -23.734375 C 16.78125 -21.335938 15.953125 -19.09375 15.046875 -17 C 14.148438 -14.914062 13.179688 -13.046875 12.140625 -11.390625 C 11.265625 -9.972656 10.34375 -8.628906 9.375 -7.359375 C 8.414062 -6.097656 7.425781 -4.957031 6.40625 -3.9375 C 5.394531 -2.925781 4.351562 -2.054688 3.28125 -1.328125 C 2.207031 -0.597656 1.125 -0.03125 0.03125 0.375 C -1.0625 0.78125 -2.164062 0.984375 -3.28125 0.984375 Z M 14.90625 37.359375 C 13.601562 37.359375 12.453125 37.117188 11.453125 36.640625 C 10.453125 36.160156 9.632812 35.445312 9 34.5 C 8.375 33.5625 7.894531 32.382812 7.5625 30.96875 C 7.238281 29.550781 7.078125 27.878906 7.078125 25.953125 L 7.078125 -55.09375 C 7.078125 -58.769531 7.726562 -61.539062 9.03125 -63.40625 C 10.34375 -65.269531 12.320312 -66.203125 14.96875 -66.203125 C 16.65625 -66.203125 18.054688 -65.816406 19.171875 -65.046875 C 20.285156 -64.273438 21.117188 -63.128906 21.671875 -61.609375 C 22.222656 -60.097656 22.5 -58.210938 22.5 -55.953125 C 22.5 -55.222656 22.25 -54.6875 21.75 -54.34375 C 21.257812 -54 20.675781 -53.828125 20 -53.828125 C 19.332031 -53.828125 18.75 -54 18.25 -54.34375 C 17.75 -54.6875 17.5 -55.222656 17.5 -55.953125 C 17.5 -57.210938 17.398438 -58.253906 17.203125 -59.078125 C 17.015625 -59.910156 16.726562 -60.535156 16.34375 -60.953125 C 15.957031 -61.378906 15.5 -61.59375 14.96875 -61.59375 C 14.351562 -61.59375 13.8125 -61.378906 13.34375 -60.953125 C 12.882812 -60.535156 12.550781 -59.847656 12.34375 -58.890625 C 12.132812 -57.929688 12.03125 -56.664062 12.03125 -55.09375 L 12.03125 -12.65625 C 13.144531 -10.96875 14.179688 -9.039062 15.140625 -6.875 C 16.097656 -4.707031 16.976562 -2.40625 17.78125 0.03125 C 18.59375 2.46875 19.3125 4.929688 19.9375 7.421875 C 20.570312 9.921875 21.109375 12.367188 21.546875 14.765625 C 21.992188 17.160156 22.332031 19.382812 22.5625 21.4375 C 22.789062 23.488281 22.90625 25.285156 22.90625 26.828125 C 22.90625 29.160156 22.585938 31.101562 21.953125 32.65625 C 21.328125 34.21875 20.425781 35.390625 19.25 36.171875 C 18.082031 36.960938 16.632812 37.359375 14.90625 37.359375 Z M 14.96875 32.75 C 15.5 32.75 15.945312 32.625 16.3125 32.375 C 16.675781 32.125 16.972656 31.757812 17.203125 31.28125 C 17.441406 30.800781 17.625 30.1875 17.75 29.4375 C 17.882812 28.695312 17.953125 27.828125 17.953125 26.828125 C 17.953125 25.515625 17.882812 24.050781 17.75 22.4375 C 17.625 20.832031 17.4375 19.117188 17.1875 17.296875 C 16.9375 15.472656 16.628906 13.609375 16.265625 11.703125 C 15.898438 9.804688 15.503906 7.925781 15.078125 6.0625 C 14.660156 4.207031 14.191406 2.4375 13.671875 0.75 C 13.148438 -0.9375 12.601562 -2.492188 12.03125 -3.921875 L 12.03125 25.953125 C 12.03125 28.410156 12.28125 30.15625 12.78125 31.1875 C 13.28125 32.226562 14.007812 32.75 14.96875 32.75 Z M 21.296875 -9.953125 C 20.378906 -9.609375 19.316406 -9.289062 18.109375 -9 C 16.898438 -8.71875 15.613281 -8.535156 14.25 -8.453125 C 12.882812 -8.378906 11.492188 -8.457031 10.078125 -8.6875 C 9.734375 -8.769531 9.484375 -9.019531 9.328125 -9.4375 C 9.171875 -9.863281 9.101562 -10.351562 9.125 -10.90625 C 9.144531 -11.46875 9.238281 -11.9375 9.40625 -12.3125 C 9.582031 -12.695312 9.804688 -12.875 10.078125 -12.84375 C 11.066406 -12.644531 12.078125 -12.535156 13.109375 -12.515625 C 14.148438 -12.492188 15.265625 -12.585938 16.453125 -12.796875 C 17.648438 -13.015625 18.976562 -13.351562 20.4375 -13.8125 C 20.894531 -13.96875 21.304688 -13.898438 21.671875 -13.609375 C 22.035156 -13.328125 22.289062 -12.9375 22.4375 -12.4375 C 22.59375 -11.9375 22.582031 -11.453125 22.40625 -10.984375 C 22.238281 -10.523438 21.867188 -10.179688 21.296875 -9.953125 Z M 21.296875 -9.953125 "/></g></g><g style="fill:#f5f5dc;fill-opacity:1;"><g transform="translate(115.657875, 101.957002)"><path style="stroke:none" d="M 17.265625 0.984375 C 15.734375 0.984375 14.25 0.65625 12.8125 0 C 11.375 -0.65625 10.046875 -1.578125 8.828125 -2.765625 C 7.617188 -3.953125 6.5625 -5.359375 5.65625 -6.984375 C 4.757812 -8.617188 4.0625 -10.40625 3.5625 -12.34375 C 3.070312 -14.28125 2.828125 -16.328125 2.828125 -18.484375 C 2.828125 -19.785156 2.976562 -21.019531 3.28125 -22.1875 C 3.582031 -23.363281 4.019531 -24.421875 4.59375 -25.359375 C 5.175781 -26.296875 5.867188 -27.097656 6.671875 -27.765625 C 7.484375 -28.441406 8.382812 -28.960938 9.375 -29.328125 C 10.375 -29.691406 11.453125 -29.875 12.609375 -29.875 C 14.796875 -29.875 16.566406 -29.429688 17.921875 -28.546875 C 19.285156 -27.671875 20.273438 -26.507812 20.890625 -25.0625 C 21.503906 -23.625 21.8125 -22.082031 21.8125 -20.4375 C 21.8125 -19.132812 21.570312 -17.789062 21.09375 -16.40625 C 20.613281 -15.019531 19.953125 -13.664062 19.109375 -12.34375 C 18.265625 -11.019531 17.285156 -9.742188 16.171875 -8.515625 C 14.523438 -6.671875 12.644531 -5.03125 10.53125 -3.59375 C 8.425781 -2.15625 6.191406 -1.03125 3.828125 -0.21875 C 1.460938 0.582031 -0.960938 0.984375 -3.453125 0.984375 C -3.992188 0.984375 -4.394531 0.757812 -4.65625 0.3125 C -4.925781 -0.125 -5.03125 -0.617188 -4.96875 -1.171875 C -4.914062 -1.734375 -4.675781 -2.234375 -4.25 -2.671875 C -3.832031 -3.117188 -3.203125 -3.34375 -2.359375 -3.34375 C -0.597656 -3.34375 1.210938 -3.6875 3.078125 -4.375 C 4.941406 -5.0625 6.71875 -5.976562 8.40625 -7.125 C 10.09375 -8.28125 11.53125 -9.53125 12.71875 -10.875 C 13.5625 -11.832031 14.28125 -12.820312 14.875 -13.84375 C 15.46875 -14.863281 15.914062 -15.890625 16.21875 -16.921875 C 16.53125 -17.960938 16.6875 -18.960938 16.6875 -19.921875 C 16.6875 -21.953125 16.300781 -23.359375 15.53125 -24.140625 C 14.769531 -24.929688 13.738281 -25.328125 12.4375 -25.328125 C 11.78125 -25.328125 11.171875 -25.179688 10.609375 -24.890625 C 10.054688 -24.609375 9.566406 -24.164062 9.140625 -23.5625 C 8.722656 -22.96875 8.398438 -22.25 8.171875 -21.40625 C 7.941406 -20.5625 7.828125 -19.585938 7.828125 -18.484375 C 7.828125 -16.296875 8.144531 -14.289062 8.78125 -12.46875 C 9.414062 -10.644531 10.25 -9.078125 11.28125 -7.765625 C 12.320312 -6.460938 13.425781 -5.445312 14.59375 -4.71875 C 15.757812 -3.988281 16.863281 -3.625 17.90625 -3.625 C 18.632812 -3.625 19.34375 -3.765625 20.03125 -4.046875 C 20.71875 -4.335938 21.4375 -4.769531 22.1875 -5.34375 C 22.9375 -5.925781 23.695312 -6.640625 24.46875 -7.484375 C 25 -8.097656 25.515625 -8.394531 26.015625 -8.375 C 26.515625 -8.351562 27.035156 -8.132812 27.578125 -7.71875 C 28.109375 -7.289062 28.421875 -6.847656 28.515625 -6.390625 C 28.617188 -5.929688 28.492188 -5.429688 28.140625 -4.890625 C 27.179688 -3.429688 26.0625 -2.269531 24.78125 -1.40625 C 23.5 -0.539062 22.203125 0.0703125 20.890625 0.4375 C 19.585938 0.800781 18.378906 0.984375 17.265625 0.984375 Z M 17.265625 0.984375 "/></g></g><g style="fill:#f5f5dc;fill-opacity:1;"><g transform="translate(0.000000000000068911, 174.922611)"><path style="stroke:none" d="M 9.9375 1.265625 C 8.195312 1.265625 6.671875 0.984375 5.359375 0.421875 C 4.046875 -0.140625 3.023438 -0.96875 2.296875 -2.0625 C 1.578125 -3.15625 1.21875 -4.46875 1.21875 -6 C 1.21875 -7.613281 1.578125 -9.046875 2.296875 -10.296875 C 3.023438 -11.546875 4.023438 -12.515625 5.296875 -13.203125 C 6.566406 -13.890625 8.050781 -14.234375 9.75 -14.234375 C 11.40625 -14.234375 12.929688 -14 14.328125 -13.53125 C 15.722656 -13.070312 17.085938 -12.476562 18.421875 -11.75 C 19.753906 -11.03125 21.085938 -10.253906 22.421875 -9.421875 C 23.753906 -8.597656 25.15625 -7.820312 26.625 -7.09375 C 28.101562 -6.363281 29.691406 -5.765625 31.390625 -5.296875 C 33.085938 -4.835938 34.984375 -4.609375 37.078125 -4.609375 C 39.503906 -4.609375 41.644531 -5.03125 43.5 -5.875 C 45.363281 -6.726562 46.921875 -7.878906 48.171875 -9.328125 C 49.421875 -10.785156 50.3125 -12.441406 50.84375 -14.296875 C 51.125 -14.984375 51.515625 -15.4375 52.015625 -15.65625 C 52.523438 -15.882812 53.144531 -15.878906 53.875 -15.640625 C 54.59375 -15.472656 55.0625 -15.164062 55.28125 -14.71875 C 55.507812 -14.28125 55.523438 -13.65625 55.328125 -12.84375 C 54.640625 -10.21875 53.425781 -7.894531 51.6875 -5.875 C 49.945312 -3.851562 47.832031 -2.285156 45.34375 -1.171875 C 42.863281 -0.0664062 40.128906 0.484375 37.140625 0.484375 C 34.148438 0.484375 31.535156 0.148438 29.296875 -0.515625 C 27.054688 -1.179688 25.054688 -2 23.296875 -2.96875 C 21.535156 -3.9375 19.914062 -4.914062 18.4375 -5.90625 C 16.96875 -6.894531 15.515625 -7.722656 14.078125 -8.390625 C 12.648438 -9.054688 11.128906 -9.390625 9.515625 -9.390625 C 8.503906 -9.390625 7.734375 -9.109375 7.203125 -8.546875 C 6.679688 -7.984375 6.421875 -7.273438 6.421875 -6.421875 C 6.421875 -5.535156 6.742188 -4.828125 7.390625 -4.296875 C 8.035156 -3.773438 8.84375 -3.515625 9.8125 -3.515625 C 11.71875 -3.515625 13.222656 -4.421875 14.328125 -6.234375 C 15.441406 -8.054688 16 -10.503906 16 -13.578125 L 16 -50.46875 C 16 -53.582031 16.351562 -56.320312 17.0625 -58.6875 C 17.769531 -61.050781 18.816406 -63.019531 20.203125 -64.59375 C 21.597656 -66.164062 23.328125 -67.363281 25.390625 -68.1875 C 27.453125 -69.019531 29.832031 -69.4375 32.53125 -69.4375 C 35.082031 -69.4375 37.347656 -69 39.328125 -68.125 C 41.304688 -67.257812 42.984375 -65.96875 44.359375 -64.25 C 45.734375 -62.539062 46.78125 -60.351562 47.5 -57.6875 C 47.789062 -56.800781 47.820312 -56.101562 47.59375 -55.59375 C 47.375 -55.09375 46.878906 -54.71875 46.109375 -54.46875 C 45.222656 -54.1875 44.523438 -54.175781 44.015625 -54.4375 C 43.515625 -54.707031 43.144531 -55.242188 42.90625 -56.046875 C 42.332031 -57.867188 41.59375 -59.40625 40.6875 -60.65625 C 39.78125 -61.90625 38.640625 -62.851562 37.265625 -63.5 C 35.890625 -64.144531 34.273438 -64.46875 32.421875 -64.46875 C 30.597656 -64.46875 29 -64.1875 27.625 -63.625 C 26.257812 -63.0625 25.085938 -62.203125 24.109375 -61.046875 C 23.140625 -59.898438 22.421875 -58.445312 21.953125 -56.6875 C 21.492188 -54.925781 21.265625 -52.851562 21.265625 -50.46875 L 21.265625 -13.578125 C 21.265625 -10.503906 20.800781 -7.851562 19.875 -5.625 C 18.945312 -3.40625 17.632812 -1.703125 15.9375 -0.515625 C 14.238281 0.671875 12.238281 1.265625 9.9375 1.265625 Z M 9.9375 1.265625 "/></g></g><g style="fill:#f5f5dc;fill-opacity:1;"><g transform="translate(57.630432, 174.922611)"><path style="stroke:none" d="M 15.640625 1.03125 C 13.328125 1.03125 11.28125 0.476562 9.5 -0.625 C 7.726562 -1.738281 6.335938 -3.425781 5.328125 -5.6875 C 4.316406 -7.957031 3.8125 -10.804688 3.8125 -14.234375 C 3.8125 -16.335938 4.003906 -18.273438 4.390625 -20.046875 C 4.773438 -21.828125 5.347656 -23.425781 6.109375 -24.84375 C 6.878906 -26.257812 7.8125 -27.453125 8.90625 -28.421875 C 10 -29.390625 11.25 -30.132812 12.65625 -30.65625 C 14.070312 -31.1875 15.628906 -31.453125 17.328125 -31.453125 C 18.617188 -31.453125 19.953125 -31.238281 21.328125 -30.8125 C 22.703125 -30.382812 23.992188 -29.828125 25.203125 -29.140625 L 25.203125 -29.453125 C 25.203125 -30.054688 25.425781 -30.5 25.875 -30.78125 C 26.320312 -31.0625 26.988281 -31.203125 27.875 -31.203125 C 28.757812 -31.203125 29.414062 -31.070312 29.84375 -30.8125 C 30.269531 -30.550781 30.484375 -30.132812 30.484375 -29.5625 L 30.484375 -5.8125 C 30.484375 -5.289062 30.5625 -4.859375 30.71875 -4.515625 C 30.882812 -4.171875 31.109375 -3.914062 31.390625 -3.75 C 31.671875 -3.59375 31.992188 -3.515625 32.359375 -3.515625 C 32.765625 -3.515625 33.097656 -3.5625 33.359375 -3.65625 C 33.617188 -3.757812 33.878906 -3.910156 34.140625 -4.109375 C 34.398438 -4.316406 34.710938 -4.5625 35.078125 -4.84375 C 35.367188 -5.09375 35.691406 -5.164062 36.046875 -5.0625 C 36.410156 -4.957031 36.773438 -4.742188 37.140625 -4.421875 C 37.503906 -4.015625 37.707031 -3.585938 37.75 -3.140625 C 37.789062 -2.703125 37.707031 -2.320312 37.5 -2 C 37.0625 -1.351562 36.5 -0.804688 35.8125 -0.359375 C 35.125 0.078125 34.382812 0.414062 33.59375 0.65625 C 32.8125 0.90625 32.015625 1.03125 31.203125 1.03125 C 30.273438 1.03125 29.46875 0.925781 28.78125 0.71875 C 28.09375 0.519531 27.503906 0.210938 27.015625 -0.203125 C 26.535156 -0.628906 26.164062 -1.144531 25.90625 -1.75 C 25.644531 -2.363281 25.453125 -3.050781 25.328125 -3.8125 C 25.328125 -3.851562 25.304688 -3.941406 25.265625 -4.078125 C 25.222656 -4.222656 25.203125 -4.378906 25.203125 -4.546875 C 24.273438 -3.046875 23.273438 -1.890625 22.203125 -1.078125 C 21.140625 -0.273438 20.039062 0.273438 18.90625 0.578125 C 17.769531 0.878906 16.679688 1.03125 15.640625 1.03125 Z M 9.15625 -14.484375 C 9.15625 -12.265625 9.414062 -10.351562 9.9375 -8.75 C 10.457031 -7.15625 11.253906 -5.929688 12.328125 -5.078125 C 13.398438 -4.234375 14.742188 -3.8125 16.359375 -3.8125 C 17.535156 -3.8125 18.65625 -4.015625 19.71875 -4.421875 C 20.789062 -4.828125 21.789062 -5.492188 22.71875 -6.421875 C 23.644531 -7.347656 24.472656 -8.5625 25.203125 -10.0625 L 25.203125 -24.71875 C 23.953125 -25.488281 22.738281 -26.003906 21.5625 -26.265625 C 20.394531 -26.523438 19.164062 -26.65625 17.875 -26.65625 C 16.820312 -26.65625 15.851562 -26.492188 14.96875 -26.171875 C 14.082031 -25.847656 13.273438 -25.363281 12.546875 -24.71875 C 11.816406 -24.070312 11.195312 -23.265625 10.6875 -22.296875 C 10.1875 -21.328125 9.804688 -20.195312 9.546875 -18.90625 C 9.285156 -17.613281 9.15625 -16.140625 9.15625 -14.484375 Z M 9.15625 -14.484375 "/></g></g><g style="fill:#f5f5dc;fill-opacity:1;"><g transform="translate(95.32352, 174.922611)"><path style="stroke:none" d=""/></g></g><g style="fill:#f5f5dc;fill-opacity:1;"><g transform="translate(113.503473, 174.922611)"><path style="stroke:none" d="M 27.6875 1.15625 C 23.320312 1.15625 19.515625 0.398438 16.265625 -1.109375 C 13.015625 -2.628906 10.507812 -4.800781 8.75 -7.625 C 7 -10.457031 6.125 -13.832031 6.125 -17.75 C 6.125 -19.976562 6.46875 -22.085938 7.15625 -24.078125 C 7.84375 -26.078125 8.820312 -27.882812 10.09375 -29.5 C 11.363281 -31.125 12.882812 -32.5 14.65625 -33.625 C 16.4375 -34.757812 18.398438 -35.566406 20.546875 -36.046875 C 18.160156 -36.734375 16.097656 -37.84375 14.359375 -39.375 C 12.617188 -40.914062 11.285156 -42.753906 10.359375 -44.890625 C 9.429688 -47.035156 8.96875 -49.34375 8.96875 -51.8125 C 8.96875 -53.90625 9.269531 -55.859375 9.875 -57.671875 C 10.476562 -59.492188 11.363281 -61.125 12.53125 -62.5625 C 13.707031 -64 15.09375 -65.226562 16.6875 -66.25 C 18.289062 -67.28125 20.085938 -68.066406 22.078125 -68.609375 C 24.078125 -69.160156 26.210938 -69.4375 28.484375 -69.4375 C 30.742188 -69.4375 32.894531 -69.179688 34.9375 -68.671875 C 36.976562 -68.171875 38.90625 -67.425781 40.71875 -66.4375 C 42.539062 -65.445312 44.195312 -64.207031 45.6875 -62.71875 C 46.414062 -62.03125 46.789062 -61.375 46.8125 -60.75 C 46.832031 -60.125 46.476562 -59.488281 45.75 -58.84375 C 45.144531 -58.351562 44.585938 -58.15625 44.078125 -58.25 C 43.578125 -58.351562 42.984375 -58.691406 42.296875 -59.265625 C 41.085938 -60.347656 39.742188 -61.253906 38.265625 -61.984375 C 36.785156 -62.710938 35.21875 -63.269531 33.5625 -63.65625 C 31.90625 -64.039062 30.148438 -64.234375 28.296875 -64.234375 C 26.191406 -64.234375 24.28125 -63.9375 22.5625 -63.34375 C 20.851562 -62.757812 19.398438 -61.929688 18.203125 -60.859375 C 17.015625 -59.796875 16.097656 -58.503906 15.453125 -56.984375 C 14.804688 -55.472656 14.484375 -53.769531 14.484375 -51.875 C 14.484375 -49.320312 15.046875 -47.015625 16.171875 -44.953125 C 17.304688 -42.898438 18.882812 -41.285156 20.90625 -40.109375 C 22.925781 -38.941406 25.25 -38.359375 27.875 -38.359375 L 37.015625 -38.359375 C 37.628906 -38.359375 38.054688 -38.1875 38.296875 -37.84375 C 38.535156 -37.5 38.65625 -36.863281 38.65625 -35.9375 C 38.65625 -35.039062 38.535156 -34.410156 38.296875 -34.046875 C 38.054688 -33.691406 37.628906 -33.515625 37.015625 -33.515625 L 28.0625 -33.515625 C 25.675781 -33.515625 23.484375 -33.128906 21.484375 -32.359375 C 19.484375 -31.585938 17.753906 -30.503906 16.296875 -29.109375 C 14.847656 -27.722656 13.71875 -26.085938 12.90625 -24.203125 C 12.09375 -22.328125 11.6875 -20.257812 11.6875 -18 C 11.6875 -15.09375 12.34375 -12.609375 13.65625 -10.546875 C 14.976562 -8.484375 16.835938 -6.894531 19.234375 -5.78125 C 21.640625 -4.675781 24.476562 -4.125 27.75 -4.125 C 29.769531 -4.125 31.726562 -4.40625 33.625 -4.96875 C 35.53125 -5.53125 37.359375 -6.394531 39.109375 -7.5625 C 40.867188 -8.738281 42.535156 -10.257812 44.109375 -12.125 C 44.710938 -12.8125 45.25 -13.222656 45.71875 -13.359375 C 46.1875 -13.503906 46.722656 -13.3125 47.328125 -12.78125 C 48.085938 -12.257812 48.519531 -11.722656 48.625 -11.171875 C 48.726562 -10.628906 48.4375 -9.9375 47.75 -9.09375 C 46.007812 -6.832031 44.078125 -4.941406 41.953125 -3.421875 C 39.835938 -1.910156 37.585938 -0.769531 35.203125 0 C 32.816406 0.769531 30.3125 1.15625 27.6875 1.15625 Z M 27.6875 1.15625 "/></g></g><g style="fill:#f5f5dc;fill-opacity:1;"><g transform="translate(165.255721, 174.922611)"><path style="stroke:none" d="M -3.328125 1.03125 C -4.097656 1.03125 -4.675781 0.796875 -5.0625 0.328125 C -5.445312 -0.128906 -5.648438 -0.648438 -5.671875 -1.234375 C -5.691406 -1.828125 -5.519531 -2.351562 -5.15625 -2.8125 C -4.789062 -3.28125 -4.222656 -3.515625 -3.453125 -3.515625 C -2.117188 -3.515625 -0.859375 -4.066406 0.328125 -5.171875 C 1.523438 -6.285156 2.6875 -7.921875 3.8125 -10.078125 C 4.945312 -12.242188 6.066406 -14.929688 7.171875 -18.140625 C 8.285156 -21.359375 9.410156 -25.066406 10.546875 -29.265625 L 13.875 -28.421875 C 12.820312 -23.492188 11.71875 -19.191406 10.5625 -15.515625 C 9.414062 -11.835938 8.164062 -8.765625 6.8125 -6.296875 C 5.457031 -3.835938 3.953125 -2 2.296875 -0.78125 C 0.640625 0.425781 -1.234375 1.03125 -3.328125 1.03125 Z M 18.484375 1.15625 C 16.617188 1.15625 14.878906 0.867188 13.265625 0.296875 C 11.648438 -0.265625 10.28125 -1.09375 9.15625 -2.1875 C 8.863281 -2.507812 8.726562 -2.910156 8.75 -3.390625 C 8.769531 -3.878906 9.066406 -4.382812 9.640625 -4.90625 C 10.078125 -5.351562 10.476562 -5.625 10.84375 -5.71875 C 11.207031 -5.820312 11.613281 -5.710938 12.0625 -5.390625 C 13.113281 -4.617188 14.132812 -4.03125 15.125 -3.625 C 16.113281 -3.226562 17.351562 -3.03125 18.84375 -3.03125 C 20.457031 -3.03125 21.738281 -3.503906 22.6875 -4.453125 C 23.632812 -5.398438 24.109375 -6.644531 24.109375 -8.1875 C 24.109375 -9.632812 23.734375 -10.941406 22.984375 -12.109375 C 22.242188 -13.285156 21.273438 -14.390625 20.078125 -15.421875 C 18.890625 -16.453125 17.628906 -17.460938 16.296875 -18.453125 C 14.960938 -19.441406 13.695312 -20.476562 12.5 -21.5625 C 11.3125 -22.65625 10.34375 -23.859375 9.59375 -25.171875 C 8.851562 -26.484375 8.484375 -27.945312 8.484375 -29.5625 C 8.484375 -31.101562 8.882812 -32.367188 9.6875 -33.359375 C 10.5 -34.347656 11.53125 -34.84375 12.78125 -34.84375 C 13.632812 -34.84375 14.300781 -34.628906 14.78125 -34.203125 C 15.269531 -33.773438 15.515625 -33.179688 15.515625 -32.421875 C 15.515625 -31.773438 15.398438 -31.015625 15.171875 -30.140625 C 14.953125 -29.273438 14.617188 -28.316406 14.171875 -27.265625 C 14.171875 -26.378906 14.535156 -25.539062 15.265625 -24.75 C 15.992188 -23.96875 16.929688 -23.179688 18.078125 -22.390625 C 19.234375 -21.597656 20.445312 -20.757812 21.71875 -19.875 C 22.988281 -18.988281 24.195312 -17.988281 25.34375 -16.875 C 26.5 -15.757812 27.441406 -14.484375 28.171875 -13.046875 C 28.898438 -11.617188 29.265625 -9.957031 29.265625 -8.0625 C 29.265625 -5.351562 28.285156 -3.140625 26.328125 -1.421875 C 24.367188 0.296875 21.753906 1.15625 18.484375 1.15625 Z M 18.484375 1.15625 "/></g></g><g style="fill:#f5f5dc;fill-opacity:1;"><g transform="translate(198.58561, 174.922611)"><path style="stroke:none" d="M 15.640625 1.03125 C 13.328125 1.03125 11.28125 0.476562 9.5 -0.625 C 7.726562 -1.738281 6.335938 -3.425781 5.328125 -5.6875 C 4.316406 -7.957031 3.8125 -10.804688 3.8125 -14.234375 C 3.8125 -16.335938 4.003906 -18.273438 4.390625 -20.046875 C 4.773438 -21.828125 5.347656 -23.425781 6.109375 -24.84375 C 6.878906 -26.257812 7.8125 -27.453125 8.90625 -28.421875 C 10 -29.390625 11.25 -30.132812 12.65625 -30.65625 C 14.070312 -31.1875 15.628906 -31.453125 17.328125 -31.453125 C 18.660156 -31.453125 20.023438 -31.269531 21.421875 -30.90625 C 22.816406 -30.539062 24.117188 -30.015625 25.328125 -29.328125 L 25.328125 -29.625 C 25.328125 -30.15625 25.546875 -30.550781 25.984375 -30.8125 C 26.429688 -31.070312 27.082031 -31.203125 27.9375 -31.203125 C 28.820312 -31.203125 29.476562 -31.070312 29.90625 -30.8125 C 30.332031 -30.550781 30.546875 -30.15625 30.546875 -29.625 L 30.546875 37.5625 C 30.546875 38.09375 30.332031 38.488281 29.90625 38.75 C 29.476562 39.007812 28.820312 39.140625 27.9375 39.140625 C 27.082031 39.140625 26.429688 39.007812 25.984375 38.75 C 25.546875 38.488281 25.328125 38.09375 25.328125 37.5625 L 25.328125 -4.125 C 24.359375 -2.75 23.316406 -1.6875 22.203125 -0.9375 C 21.097656 -0.1875 19.988281 0.328125 18.875 0.609375 C 17.757812 0.890625 16.679688 1.03125 15.640625 1.03125 Z M 9.15625 -14.484375 C 9.15625 -12.265625 9.414062 -10.351562 9.9375 -8.75 C 10.457031 -7.15625 11.253906 -5.929688 12.328125 -5.078125 C 13.398438 -4.234375 14.742188 -3.8125 16.359375 -3.8125 C 17.535156 -3.8125 18.65625 -4.015625 19.71875 -4.421875 C 20.789062 -4.828125 21.800781 -5.492188 22.75 -6.421875 C 23.695312 -7.347656 24.554688 -8.5625 25.328125 -10.0625 L 25.328125 -24.484375 C 24.078125 -25.285156 22.84375 -25.847656 21.625 -26.171875 C 20.414062 -26.492188 19.164062 -26.65625 17.875 -26.65625 C 16.820312 -26.65625 15.851562 -26.492188 14.96875 -26.171875 C 14.082031 -25.847656 13.273438 -25.363281 12.546875 -24.71875 C 11.816406 -24.070312 11.195312 -23.265625 10.6875 -22.296875 C 10.1875 -21.328125 9.804688 -20.195312 9.546875 -18.90625 C 9.285156 -17.613281 9.15625 -16.140625 9.15625 -14.484375 Z M 19.515625 13.5 C 18.785156 13.5 18.328125 13.273438 18.140625 12.828125 C 17.960938 12.390625 17.875 11.910156 17.875 11.390625 C 17.875 10.816406 17.960938 10.285156 18.140625 9.796875 C 18.328125 9.316406 18.785156 9.078125 19.515625 9.078125 L 36.421875 9.078125 C 37.140625 9.078125 37.585938 9.316406 37.765625 9.796875 C 37.953125 10.285156 38.046875 10.816406 38.046875 11.390625 C 38.046875 11.910156 37.953125 12.390625 37.765625 12.828125 C 37.585938 13.273438 37.140625 13.5 36.421875 13.5 Z M 19.515625 13.5 "/></g></g><g style="fill:#f5f5dc;fill-opacity:1;"><g transform="translate(237.793695, 174.922611)"><path style="stroke:none" d="M 16.296875 1.03125 C 13.953125 1.03125 11.992188 0.617188 10.421875 -0.203125 C 8.847656 -1.035156 7.664062 -2.269531 6.875 -3.90625 C 6.09375 -5.539062 5.703125 -7.59375 5.703125 -10.0625 L 5.703125 -29.625 C 5.703125 -30.15625 5.910156 -30.550781 6.328125 -30.8125 C 6.753906 -31.070312 7.390625 -31.203125 8.234375 -31.203125 C 9.128906 -31.203125 9.796875 -31.070312 10.234375 -30.8125 C 10.679688 -30.550781 10.90625 -30.15625 10.90625 -29.625 L 10.90625 -10.0625 C 10.90625 -8.644531 11.125 -7.453125 11.5625 -6.484375 C 12.007812 -5.515625 12.6875 -4.785156 13.59375 -4.296875 C 14.507812 -3.816406 15.632812 -3.578125 16.96875 -3.578125 C 18.09375 -3.578125 19.140625 -3.757812 20.109375 -4.125 C 21.085938 -4.488281 21.96875 -4.984375 22.75 -5.609375 C 23.539062 -6.234375 24.238281 -6.988281 24.84375 -7.875 C 25.445312 -8.757812 25.953125 -9.707031 26.359375 -10.71875 L 26.359375 -29.625 C 26.359375 -30.15625 26.566406 -30.550781 26.984375 -30.8125 C 27.410156 -31.070312 28.070312 -31.203125 28.96875 -31.203125 C 29.8125 -31.203125 30.453125 -31.070312 30.890625 -30.8125 C 31.335938 -30.550781 31.5625 -30.15625 31.5625 -29.625 L 31.5625 -5.8125 C 31.5625 -5.25 31.640625 -4.785156 31.796875 -4.421875 C 31.960938 -4.054688 32.195312 -3.789062 32.5 -3.625 C 32.8125 -3.46875 33.148438 -3.390625 33.515625 -3.390625 C 33.867188 -3.390625 34.195312 -3.457031 34.5 -3.59375 C 34.8125 -3.738281 35.117188 -3.929688 35.421875 -4.171875 C 35.722656 -4.421875 36.015625 -4.644531 36.296875 -4.84375 C 36.617188 -5.09375 36.972656 -5.15625 37.359375 -5.03125 C 37.742188 -4.90625 38.097656 -4.625 38.421875 -4.1875 C 38.617188 -3.894531 38.757812 -3.546875 38.84375 -3.140625 C 38.925781 -2.742188 38.820312 -2.363281 38.53125 -2 C 38.132812 -1.394531 37.613281 -0.859375 36.96875 -0.390625 C 36.320312 0.0664062 35.613281 0.4375 34.84375 0.71875 C 34.070312 1.007812 33.285156 1.15625 32.484375 1.15625 C 31.515625 1.15625 30.675781 1.019531 29.96875 0.75 C 29.257812 0.488281 28.660156 0.117188 28.171875 -0.359375 C 27.691406 -0.847656 27.304688 -1.414062 27.015625 -2.0625 C 26.734375 -2.707031 26.554688 -3.414062 26.484375 -4.1875 L 26.421875 -4.71875 C 25.859375 -3.832031 25.222656 -3.035156 24.515625 -2.328125 C 23.804688 -1.617188 23.023438 -1.007812 22.171875 -0.5 C 21.328125 0 20.410156 0.378906 19.421875 0.640625 C 18.429688 0.898438 17.390625 1.03125 16.296875 1.03125 Z M 16.296875 1.03125 "/></g></g><g style="fill:#f5f5dc;fill-opacity:1;"><g transform="translate(276.94119, 174.922611)"><path style="stroke:none" d="M 11.6875 1.03125 C 9.59375 1.03125 8.070312 0.488281 7.125 -0.59375 C 6.175781 -1.6875 5.703125 -3.226562 5.703125 -5.21875 L 5.703125 -29.625 C 5.703125 -30.15625 5.910156 -30.550781 6.328125 -30.8125 C 6.753906 -31.070312 7.390625 -31.203125 8.234375 -31.203125 C 9.128906 -31.203125 9.796875 -31.070312 10.234375 -30.8125 C 10.679688 -30.550781 10.90625 -30.15625 10.90625 -29.625 L 10.90625 -5.8125 C 10.90625 -5.007812 11.085938 -4.425781 11.453125 -4.0625 C 11.816406 -3.695312 12.257812 -3.515625 12.78125 -3.515625 C 13.226562 -3.515625 13.601562 -3.582031 13.90625 -3.71875 C 14.207031 -3.863281 14.488281 -4.035156 14.75 -4.234375 C 15.019531 -4.441406 15.316406 -4.664062 15.640625 -4.90625 C 15.878906 -5.113281 16.207031 -5.132812 16.625 -4.96875 C 17.050781 -4.800781 17.382812 -4.554688 17.625 -4.234375 C 17.957031 -3.878906 18.140625 -3.5 18.171875 -3.09375 C 18.210938 -2.6875 18.113281 -2.320312 17.875 -2 C 17.425781 -1.351562 16.867188 -0.804688 16.203125 -0.359375 C 15.535156 0.078125 14.804688 0.414062 14.015625 0.65625 C 13.234375 0.90625 12.457031 1.03125 11.6875 1.03125 Z M 8.359375 -40.53125 C 7.234375 -40.53125 6.375 -40.84375 5.78125 -41.46875 C 5.195312 -42.101562 4.90625 -43.046875 4.90625 -44.296875 C 4.90625 -45.585938 5.195312 -46.554688 5.78125 -47.203125 C 6.375 -47.847656 7.234375 -48.171875 8.359375 -48.171875 C 9.453125 -48.171875 10.28125 -47.847656 10.84375 -47.203125 C 11.40625 -46.554688 11.6875 -45.585938 11.6875 -44.296875 C 11.726562 -43.046875 11.457031 -42.101562 10.875 -41.46875 C 10.289062 -40.84375 9.453125 -40.53125 8.359375 -40.53125 Z M 8.359375 -40.53125 "/></g></g><g style="fill:#f5f5dc;fill-opacity:1;"><g transform="translate(295.121131, 174.922611)"><path style="stroke:none" d="M 9.75 0.90625 C 8.90625 0.90625 8.269531 0.773438 7.84375 0.515625 C 7.414062 0.253906 7.203125 -0.140625 7.203125 -0.671875 L 7.203125 -22.359375 C 7.203125 -24.054688 6.941406 -25.195312 6.421875 -25.78125 C 5.898438 -26.363281 5.171875 -26.65625 4.234375 -26.65625 C 3.554688 -26.65625 2.984375 -26.472656 2.515625 -26.109375 C 2.046875 -25.753906 1.679688 -25.234375 1.421875 -24.546875 C 1.160156 -23.859375 0.988281 -23.046875 0.90625 -22.109375 C 0.863281 -21.460938 0.679688 -20.988281 0.359375 -20.6875 C 0.0351562 -20.382812 -0.488281 -20.234375 -1.21875 -20.234375 C -1.863281 -20.234375 -2.382812 -20.375 -2.78125 -20.65625 C -3.1875 -20.945312 -3.367188 -21.613281 -3.328125 -22.65625 C -3.253906 -24.394531 -2.898438 -25.898438 -2.265625 -27.171875 C -1.640625 -28.441406 -0.773438 -29.429688 0.328125 -30.140625 C 1.441406 -30.847656 2.742188 -31.203125 4.234375 -31.203125 C 5.285156 -31.203125 6.222656 -31.09375 7.046875 -30.875 C 7.878906 -30.65625 8.617188 -30.3125 9.265625 -29.84375 C 9.910156 -29.375 10.457031 -28.785156 10.90625 -28.078125 C 11.351562 -27.378906 11.695312 -26.546875 11.9375 -25.578125 L 12.0625 -25.078125 C 12.625 -26.054688 13.285156 -26.925781 14.046875 -27.6875 C 14.816406 -28.457031 15.65625 -29.125 16.5625 -29.6875 C 17.476562 -30.257812 18.453125 -30.695312 19.484375 -31 C 20.515625 -31.300781 21.59375 -31.453125 22.71875 -31.453125 C 24.820312 -31.453125 26.671875 -31.066406 28.265625 -30.296875 C 29.859375 -29.523438 31.109375 -28.320312 32.015625 -26.6875 C 32.929688 -25.050781 33.390625 -22.898438 33.390625 -20.234375 L 33.390625 -5.8125 C 33.390625 -5.289062 33.46875 -4.859375 33.625 -4.515625 C 33.789062 -4.171875 34.023438 -3.914062 34.328125 -3.75 C 34.628906 -3.59375 34.960938 -3.515625 35.328125 -3.515625 C 35.691406 -3.515625 36.023438 -3.570312 36.328125 -3.6875 C 36.628906 -3.8125 36.921875 -3.984375 37.203125 -4.203125 C 37.484375 -4.429688 37.765625 -4.644531 38.046875 -4.84375 C 38.367188 -5.09375 38.734375 -5.132812 39.140625 -4.96875 C 39.546875 -4.800781 39.890625 -4.554688 40.171875 -4.234375 C 40.492188 -3.835938 40.664062 -3.4375 40.6875 -3.03125 C 40.707031 -2.625 40.597656 -2.238281 40.359375 -1.875 C 39.910156 -1.269531 39.351562 -0.742188 38.6875 -0.296875 C 38.019531 0.140625 37.300781 0.46875 36.53125 0.6875 C 35.769531 0.914062 34.984375 1.03125 34.171875 1.03125 C 33.117188 1.03125 32.207031 0.890625 31.4375 0.609375 C 30.675781 0.328125 30.050781 -0.0703125 29.5625 -0.59375 C 29.082031 -1.125 28.726562 -1.78125 28.5 -2.5625 C 28.28125 -3.351562 28.171875 -4.238281 28.171875 -5.21875 L 28.171875 -19.75 C 28.171875 -21.164062 27.957031 -22.390625 27.53125 -23.421875 C 27.113281 -24.453125 26.457031 -25.238281 25.5625 -25.78125 C 24.675781 -26.320312 23.488281 -26.59375 22 -26.59375 C 21.144531 -26.59375 20.265625 -26.472656 19.359375 -26.234375 C 18.453125 -25.992188 17.582031 -25.597656 16.75 -25.046875 C 15.925781 -24.503906 15.140625 -23.789062 14.390625 -22.90625 C 13.640625 -22.019531 12.984375 -20.925781 12.421875 -19.625 L 12.421875 -0.671875 C 12.421875 -0.140625 12.195312 0.253906 11.75 0.515625 C 11.3125 0.773438 10.644531 0.90625 9.75 0.90625 Z M 9.75 0.90625 "/></g></g><g style="fill:#f5f5dc;fill-opacity:1;"><g transform="translate(335.783623, 174.922611)"><path style="stroke:none" d="M 15.640625 1.03125 C 13.328125 1.03125 11.28125 0.476562 9.5 -0.625 C 7.726562 -1.738281 6.335938 -3.425781 5.328125 -5.6875 C 4.316406 -7.957031 3.8125 -10.804688 3.8125 -14.234375 C 3.8125 -16.335938 4.003906 -18.273438 4.390625 -20.046875 C 4.773438 -21.828125 5.347656 -23.425781 6.109375 -24.84375 C 6.878906 -26.257812 7.8125 -27.453125 8.90625 -28.421875 C 10 -29.390625 11.25 -30.132812 12.65625 -30.65625 C 14.070312 -31.1875 15.628906 -31.453125 17.328125 -31.453125 C 18.617188 -31.453125 19.953125 -31.238281 21.328125 -30.8125 C 22.703125 -30.382812 23.992188 -29.828125 25.203125 -29.140625 L 25.203125 -29.453125 C 25.203125 -30.054688 25.425781 -30.5 25.875 -30.78125 C 26.320312 -31.0625 26.988281 -31.203125 27.875 -31.203125 C 28.757812 -31.203125 29.414062 -31.070312 29.84375 -30.8125 C 30.269531 -30.550781 30.484375 -30.132812 30.484375 -29.5625 L 30.484375 -5.8125 C 30.484375 -5.289062 30.5625 -4.859375 30.71875 -4.515625 C 30.882812 -4.171875 31.109375 -3.914062 31.390625 -3.75 C 31.671875 -3.59375 31.992188 -3.515625 32.359375 -3.515625 C 32.765625 -3.515625 33.097656 -3.5625 33.359375 -3.65625 C 33.617188 -3.757812 33.878906 -3.910156 34.140625 -4.109375 C 34.398438 -4.316406 34.710938 -4.5625 35.078125 -4.84375 C 35.367188 -5.09375 35.691406 -5.164062 36.046875 -5.0625 C 36.410156 -4.957031 36.773438 -4.742188 37.140625 -4.421875 C 37.503906 -4.015625 37.707031 -3.585938 37.75 -3.140625 C 37.789062 -2.703125 37.707031 -2.320312 37.5 -2 C 37.0625 -1.351562 36.5 -0.804688 35.8125 -0.359375 C 35.125 0.078125 34.382812 0.414062 33.59375 0.65625 C 32.8125 0.90625 32.015625 1.03125 31.203125 1.03125 C 30.273438 1.03125 29.46875 0.925781 28.78125 0.71875 C 28.09375 0.519531 27.503906 0.210938 27.015625 -0.203125 C 26.535156 -0.628906 26.164062 -1.144531 25.90625 -1.75 C 25.644531 -2.363281 25.453125 -3.050781 25.328125 -3.8125 C 25.328125 -3.851562 25.304688 -3.941406 25.265625 -4.078125 C 25.222656 -4.222656 25.203125 -4.378906 25.203125 -4.546875 C 24.273438 -3.046875 23.273438 -1.890625 22.203125 -1.078125 C 21.140625 -0.273438 20.039062 0.273438 18.90625 0.578125 C 17.769531 0.878906 16.679688 1.03125 15.640625 1.03125 Z M 9.15625 -14.484375 C 9.15625 -12.265625 9.414062 -10.351562 9.9375 -8.75 C 10.457031 -7.15625 11.253906 -5.929688 12.328125 -5.078125 C 13.398438 -4.234375 14.742188 -3.8125 16.359375 -3.8125 C 17.535156 -3.8125 18.65625 -4.015625 19.71875 -4.421875 C 20.789062 -4.828125 21.789062 -5.492188 22.71875 -6.421875 C 23.644531 -7.347656 24.472656 -8.5625 25.203125 -10.0625 L 25.203125 -24.71875 C 23.953125 -25.488281 22.738281 -26.003906 21.5625 -26.265625 C 20.394531 -26.523438 19.164062 -26.65625 17.875 -26.65625 C 16.820312 -26.65625 15.851562 -26.492188 14.96875 -26.171875 C 14.082031 -25.847656 13.273438 -25.363281 12.546875 -24.71875 C 11.816406 -24.070312 11.195312 -23.265625 10.6875 -22.296875 C 10.1875 -21.328125 9.804688 -20.195312 9.546875 -18.90625 C 9.285156 -17.613281 9.15625 -16.140625 9.15625 -14.484375 Z M 9.15625 -14.484375 "/></g></g></g></svg>